<svg xmlns="//www.w3.org/2000/svg" xmlns:xlink="//www.w3.org/1999/xlink" id="Layer_1" x="0" y="0" version="1.1" viewBox="0 0 23 23" xml:space="preserve" style="enable-background:new 0 0 23 23"><style type="text/css">.st44{fill:#9d9d9d}</style><g><path d="M21,19.1l-0.9-0.9c-0.1-0.1-3.4-3.4-8.4-0.2l-0.3,0.2L11.2,18c-5-3.2-8.3,0.1-8.4,0.2L2,19.1L2,7.2l0.1-0.1 c1.4-1.6,3-2.4,4.7-2.5c2.2-0.1,4,1.1,4.7,1.6c0.7-0.6,2.5-1.7,4.7-1.6c1.7,0.1,3.3,0.9,4.7,2.5L21,7.2V19.1z M7,15.6 c1.3,0,2.8,0.4,4.5,1.4c4-2.4,7.1-1.1,8.5-0.1V7.6c-1.2-1.3-2.5-1.9-3.8-2c-2.4-0.1-4.3,1.6-4.3,1.7l-0.3,0.3l-0.3-0.3 c0,0-1.9-1.8-4.3-1.7C5.4,5.7,4.1,6.3,3,7.6v9.3C3.8,16.3,5.2,15.6,7,15.6z" class="st44"/><rect width="1" height="11" x="11" y="6.5" class="st44"/></g></svg>